<?xml version="1.0" encoding="UTF-8" standalone="no"?>
<svg width="112px" height="222px" viewBox="0 0 112 222" version="1.1" xmlns="http://www.w3.org/2000/svg" xmlns:xlink="http://www.w3.org/1999/xlink" xmlns:sketch="http://www.bohemiancoding.com/sketch/ns">
    <!-- Generator: Sketch 3.0.4 (8053) - http://www.bohemiancoding.com/sketch -->
    <title>empty curve</title>
    <desc>Created with Sketch.</desc>
    <defs></defs>
    <g id="Page-1" stroke="none" stroke-width="1" fill="none" fill-rule="evenodd" sketch:type="MSPage">
        <path d="M104.623,64.243 C104.623,27.416 76.145,0.29 43.143,0.29 C17.633,0.29 1.104,12.817 0.531,25.296 C-0.317,43.782 24.523,48.23 24.523,78.672 C24.523,107.914 6.397,114.826 6.397,156.337 C6.397,193.164 34.875,220.29 67.877,220.29 C93.387,220.29 109.916,207.763 110.489,195.284 C111.337,176.798 86.497,172.35 86.497,141.908 C86.497,112.665 104.623,105.754 104.623,64.243 L104.623,64.243 Z M96.293,179.363 C101.702,185.633 104.75,189.451 104.495,195.009 C104.298,199.308 100.953,203.825 95.32,207.401 C88.319,211.843 78.573,214.29 67.877,214.29 C53.261,214.29 39.465,208.472 29.03,197.907 C18.304,187.048 12.397,172.284 12.397,156.337 C12.397,135.014 17.354,123.596 22.148,112.553 C26.265,103.069 30.523,93.262 30.523,78.672 C30.523,59.527 21.764,49.374 14.727,41.216 C9.318,34.947 6.27,31.129 6.525,25.571 C6.722,21.271 10.066,16.755 15.7,13.179 C22.701,8.737 32.447,6.29 43.143,6.29 C57.759,6.29 71.555,12.108 81.99,22.672 C92.716,33.532 98.623,48.296 98.623,64.243 C98.623,85.565 93.666,96.984 88.872,108.027 C84.755,117.511 80.497,127.318 80.497,141.908 C80.497,161.054 89.256,171.206 96.293,179.363 L96.293,179.363 Z" id="empty-curve" fill="#1A1918" sketch:type="MSShapeGroup"></path>
    </g>
</svg>