<?xml version="1.0" encoding="UTF-8" standalone="no"?>
<svg width="112px" height="220px" viewBox="0 0 112 220" version="1.1" xmlns="http://www.w3.org/2000/svg" xmlns:xlink="http://www.w3.org/1999/xlink" xmlns:sketch="http://www.bohemiancoding.com/sketch/ns">
    <!-- Generator: Sketch 3.0.4 (8053) - http://www.bohemiancoding.com/sketch -->
    <title>shaded diamond</title>
    <desc>Created with Sketch.</desc>
    <defs></defs>
    <g id="Page-1" stroke="none" stroke-width="1" fill="none" fill-rule="evenodd" sketch:type="MSPage">
        <path d="M0.51,110 L55.51,220 L110.51,110 L55.51,0 L0.51,110 L0.51,110 Z M55.51,206.583 L52.719,201 L58.302,201 L55.51,206.583 L55.51,206.583 Z M59.302,199 L51.719,199 L47.719,191 L63.302,191 L59.302,199 L59.302,199 Z M64.302,189 L46.719,189 L42.719,181 L68.302,181 L64.302,189 L64.302,189 Z M69.302,179 L41.719,179 L37.719,171 L73.302,171 L69.302,179 L69.302,179 Z M74.302,169 L36.719,169 L32.719,161 L78.302,161 L74.302,169 L74.302,169 Z M79.302,159 L31.719,159 L27.719,151 L83.302,151 L79.302,159 L79.302,159 Z M84.302,149 L26.719,149 L22.719,141 L88.302,141 L84.302,149 L84.302,149 Z M89.302,139 L21.719,139 L17.719,131 L93.302,131 L89.302,139 L89.302,139 Z M94.302,129 L16.719,129 L12.719,121 L98.302,121 L94.302,129 L94.302,129 Z M99.302,119 L11.719,119 L7.719,111 L103.302,111 L99.302,119 L99.302,119 Z M103.302,109 L7.719,109 L11.719,101 L99.302,101 L103.302,109 L103.302,109 Z M98.302,99 L12.719,99 L16.719,91 L94.302,91 L98.302,99 L98.302,99 Z M93.302,89 L17.719,89 L21.719,81 L89.302,81 L93.302,89 L93.302,89 Z M88.302,79 L22.719,79 L26.719,71 L84.302,71 L88.302,79 L88.302,79 Z M83.302,69 L27.719,69 L31.719,61 L79.302,61 L83.302,69 L83.302,69 Z M78.302,59 L32.719,59 L36.719,51 L74.302,51 L78.302,59 L78.302,59 Z M73.302,49 L37.719,49 L41.719,41 L69.302,41 L73.302,49 L73.302,49 Z M68.302,39 L42.719,39 L46.719,31 L64.302,31 L68.302,39 L68.302,39 Z M63.302,29 L47.719,29 L51.719,21 L59.302,21 L63.302,29 L63.302,29 Z M52.719,19 L55.51,13.416 L58.302,19 L52.719,19 L52.719,19 Z" id="shaded-diamond" fill="#1A1918" sketch:type="MSShapeGroup"></path>
    </g>
</svg>