<?xml version="1.0" encoding="UTF-8" standalone="no"?>
<svg width="112px" height="220px" viewBox="0 0 112 220" version="1.1" xmlns="http://www.w3.org/2000/svg" xmlns:xlink="http://www.w3.org/1999/xlink" xmlns:sketch="http://www.bohemiancoding.com/sketch/ns">
    <!-- Generator: Sketch 3.0.4 (8053) - http://www.bohemiancoding.com/sketch -->
    <title>shaded oval</title>
    <desc>Created with Sketch.</desc>
    <defs></defs>
    <g id="Page-1" stroke="none" stroke-width="1" fill="none" fill-rule="evenodd" sketch:type="MSPage">
        <path d="M55.51,0 C25.135,0 0.51,24.624 0.51,55 L0.51,165 C0.51,195.376 25.135,220 55.51,220 C85.886,220 110.51,195.376 110.51,165 L110.51,55 C110.51,24.624 85.886,0 55.51,0 L55.51,0 Z M55.51,6 C61.441,6 67.129,7.06 72.396,9 L38.624,9 C43.891,7.06 49.579,6 55.51,6 L55.51,6 Z M33.983,11 L77.037,11 C81.313,13.101 85.241,15.801 88.707,19 L22.313,19 C25.779,15.801 29.708,13.101 33.983,11 L33.983,11 Z M55.51,214 C49.579,214 43.891,212.939 38.624,211 L72.396,211 C67.129,212.939 61.441,214 55.51,214 L55.51,214 Z M77.037,209 L33.983,209 C29.708,206.899 25.779,204.199 22.313,201 L88.707,201 C85.241,204.199 81.313,206.899 77.037,209 L77.037,209 Z M90.745,199 L20.275,199 C17.923,196.563 15.829,193.879 14.019,191 L97.001,191 C95.191,193.879 93.097,196.563 90.745,199 L90.745,199 Z M98.188,189 L12.832,189 C11.4,186.462 10.174,183.792 9.207,181 L101.814,181 C100.846,183.792 99.621,186.462 98.188,189 L98.188,189 Z M102.448,179 L8.572,179 C7.8,176.414 7.228,173.744 6.891,171 L104.13,171 C103.793,173.744 103.22,176.414 102.448,179 L102.448,179 Z M104.51,165 C104.51,166.35 104.43,167.679 104.318,169 L6.702,169 C6.59,167.679 6.51,166.35 6.51,165 L6.51,161 L104.51,161 L104.51,165 L104.51,165 Z M6.51,151 L104.51,151 L104.51,159 L6.51,159 L6.51,151 Z M6.51,141 L104.51,141 L104.51,149 L6.51,149 L6.51,141 Z M6.51,131 L104.51,131 L104.51,139 L6.51,139 L6.51,131 Z M6.51,121 L104.51,121 L104.51,129 L6.51,129 L6.51,121 Z M6.51,111 L104.51,111 L104.51,119 L6.51,119 L6.51,111 Z M6.51,101 L104.51,101 L104.51,109 L6.51,109 L6.51,101 Z M6.51,91 L104.51,91 L104.51,99 L6.51,99 L6.51,91 Z M6.51,81 L104.51,81 L104.51,89 L6.51,89 L6.51,81 Z M6.51,71 L104.51,71 L104.51,79 L6.51,79 L6.51,71 Z M6.51,61 L104.51,61 L104.51,69 L6.51,69 L6.51,61 Z M104.51,55 L104.51,59 L6.51,59 L6.51,55 C6.51,53.65 6.59,52.321 6.702,51 L104.318,51 C104.43,52.321 104.51,53.65 104.51,55 L104.51,55 Z M104.13,49 L6.891,49 C7.228,46.256 7.8,43.585 8.572,41 L102.448,41 C103.22,43.585 103.793,46.256 104.13,49 L104.13,49 Z M101.814,39 L9.207,39 C10.174,36.208 11.4,33.538 12.832,31 L98.188,31 C99.621,33.538 100.846,36.208 101.814,39 L101.814,39 Z M97.245,29.375 L97.238,29.375 C97.205,29.322 97.174,29.267 97.141,29.213 C97.175,29.268 97.212,29.32 97.245,29.375 L97.245,29.375 Z M14.019,29 C15.829,26.121 17.923,23.437 20.275,21 L90.745,21 C93.097,23.437 95.191,26.121 97.002,29 L14.019,29 L14.019,29 Z" id="shaded-oval" fill="#1A1918" sketch:type="MSShapeGroup"></path>
    </g>
</svg>