<?xml version="1.0" encoding="UTF-8" standalone="no"?>
<svg width="112px" height="220px" viewBox="0 0 112 220" version="1.1" xmlns="http://www.w3.org/2000/svg" xmlns:xlink="http://www.w3.org/1999/xlink" xmlns:sketch="http://www.bohemiancoding.com/sketch/ns">
    <!-- Generator: Sketch 3.0.4 (8053) - http://www.bohemiancoding.com/sketch -->
    <title>shaded curve</title>
    <desc>Created with Sketch.</desc>
    <defs></defs>
    <g id="Page-1" stroke="none" stroke-width="1" fill="none" fill-rule="evenodd" sketch:type="MSPage">
        <path d="M104.623,63.953 C104.623,27.126 76.145,0 43.143,0 C17.633,0 1.104,12.527 0.531,25.006 C-0.317,43.492 24.523,47.94 24.523,78.381 C24.523,107.624 6.397,114.536 6.397,156.047 C6.397,192.874 34.875,220 67.877,220 C93.387,220 109.916,207.473 110.489,194.994 C111.337,176.508 86.497,172.06 86.497,141.618 C86.497,112.375 104.623,105.464 104.623,63.953 L104.623,63.953 Z M92.508,99 L27.342,99 C28.138,96.482 28.833,93.835 29.368,91 L95.188,91 C94.378,93.853 93.469,96.489 92.508,99 L92.508,99 Z M95.724,89 L29.709,89 C29.709,89 29.709,89.004 29.708,89.006 C30.102,86.496 30.373,83.844 30.475,81 L97.378,81 C96.925,83.871 96.362,86.516 95.724,89 L95.724,89 Z M97.67,79 L30.511,79 C30.513,78.791 30.523,78.592 30.523,78.381 C30.523,75.485 30.041,71 30.041,71 L98.425,71 C98.263,73.848 98.008,76.509 97.67,79 L97.67,79 Z M98.623,63.953 C98.623,65.703 98.586,67.378 98.522,69 L29.741,69 C29.241,66.096 28.518,63.444 27.634,61 L98.538,61 C98.588,61.979 98.623,62.962 98.623,63.953 L98.623,63.953 Z M43.143,6 C49.251,6 55.206,7.042 60.839,9 L23.968,9 C29.631,7.05 36.179,6 43.143,6 L43.143,6 Z M15.7,12.889 C16.771,12.21 17.914,11.584 19.107,11 L65.807,11 C70.269,13.065 74.475,15.739 78.314,19 L8.947,19 C10.515,16.819 12.801,14.729 15.7,12.889 L15.7,12.889 Z M6.525,25.281 C6.59,23.863 7.019,22.423 7.74,21 L80.557,21 C81.039,21.455 81.522,21.908 81.99,22.382 C84.032,24.45 85.886,26.667 87.569,29 L6.895,29 C6.596,27.82 6.465,26.601 6.525,25.281 L6.525,25.281 Z M7.58,31 L88.949,31 C90.623,33.544 92.095,36.216 93.348,39 L13.08,39 C10.538,35.99 8.662,33.517 7.58,31 L7.58,31 Z M14.79,41 L94.218,41 C95.266,43.584 96.117,46.259 96.794,49 L21.237,49 C19.121,46.036 16.882,43.426 14.79,41 L14.79,41 Z M22.6,50.992 C22.602,50.995 22.604,50.997 22.605,51 L97.263,51 C97.817,53.614 98.204,56.284 98.416,59 L26.855,59 C26.855,59 26.855,59.001 26.856,59.002 C25.626,56.044 24.172,53.395 22.6,50.992 L22.6,50.992 Z M26.681,101 L91.722,101 C90.793,103.311 89.829,105.532 88.872,107.737 C88.69,108.157 88.507,108.579 88.325,109 L23.554,109 C24.651,106.422 25.721,103.783 26.681,101 L26.681,101 Z M22.148,112.263 C22.33,111.843 22.513,111.421 22.695,111 L87.466,111 C86.369,113.578 85.299,116.217 84.339,119 L19.298,119 C20.228,116.689 21.191,114.468 22.148,112.263 L22.148,112.263 Z M18.512,121 L83.678,121 C82.882,123.518 82.187,126.165 81.652,129 L15.832,129 C16.642,126.146 17.552,123.511 18.512,121 L18.512,121 Z M15.294,131 L81.311,131 C81.311,131 81.312,130.996 81.312,130.994 C80.918,133.504 80.647,136.156 80.545,139 L13.642,139 C14.095,136.131 14.656,133.482 15.294,131 L15.294,131 Z M13.35,141 L80.509,141 C80.507,141.208 80.497,141.408 80.497,141.618 C80.497,144.515 80.979,149 80.979,149 L12.595,149 C12.757,146.152 13.012,143.491 13.35,141 L13.35,141 Z M12.397,156.047 C12.397,154.297 12.434,152.622 12.498,151 L81.279,151 C81.779,153.905 82.502,156.556 83.386,159 L12.482,159 C12.432,158.02 12.397,157.037 12.397,156.047 L12.397,156.047 Z M50.15,211 L87.043,211 C86.159,211.187 75.127,214 67.877,214 C61.759,214 55.792,212.963 50.15,211 L50.15,211 Z M95.32,207.111 C93.733,208.117 91.917,209 91.917,209 L45.178,209 C40.721,206.935 36.525,204.257 32.69,201 L102.076,201 C100.506,203.181 98.219,205.27 95.32,207.111 L95.32,207.111 Z M104.495,194.719 C104.43,196.137 104,197.577 103.28,199 L30.463,199 C29.981,198.545 29.498,198.092 29.03,197.617 C26.986,195.548 25.119,193.334 23.433,191 L104.125,191 C104.424,192.179 104.555,193.399 104.495,194.719 L104.495,194.719 Z M103.44,189 L22.055,189 C20.379,186.458 18.913,183.783 17.66,181 L97.94,181 C100.482,184.01 102.358,186.483 103.44,189 L103.44,189 Z M96.23,179 L16.802,179 C15.754,176.415 14.898,173.741 14.22,171 L89.783,171 C91.899,173.964 94.138,176.574 96.23,179 L96.23,179 Z M88.42,169.008 C88.418,169.005 88.416,169.003 88.415,169 L13.763,169 C13.21,166.386 12.816,163.716 12.604,161 L84.165,161 L84.164,160.998 C85.394,163.956 86.848,166.605 88.42,169.008 L88.42,169.008 Z" id="shaded-curve" fill="#1A1918" sketch:type="MSShapeGroup"></path>
    </g>
</svg>